<?xml version="1.0" encoding="utf-8"?>
<!-- Generator: Adobe Illustrator 21.0.0, SVG Export Plug-In . SVG Version: 6.00 Build 0)  -->
<svg version="1.1" id="Capa_1" xmlns="http://www.w3.org/2000/svg" xmlns:xlink="http://www.w3.org/1999/xlink" x="0px" y="0px"
	 viewBox="0 0 512 512" style="enable-background:new 0 0 512 512;" xml:space="preserve">
<style type="text/css">
	.st0{fill:#FFC75C;}
	.st1{fill:#CAF0FF;}
	.st2{fill:#DEEEFC;}
	.st3{fill:#D2F5FF;}
	.st4{fill:#1E2838;}
</style>
<g transform="translate(0 -1)">
	<g transform="translate(1 2)">
		<path class="st0" d="M314.7,101.4L144.9,43.1c-6.4-2.3-13.5-1.9-19.6,1.1c-6.1,3-10.8,8.2-13,14.7L9,356.9
			c-2.3,6.4-1.8,13.5,1.2,19.7s8.3,10.8,14.8,13l136.2,46.8L314.7,101.4z"/>
		<path class="st1" d="M502.5,127v213.3l-128,128H186.7c-14.1,0-25.6-11.5-25.6-25.6V127c0-14.1,11.5-25.6,25.6-25.6h290.1
			C491,101.4,502.5,112.9,502.5,127z"/>
		<path class="st2" d="M476.9,127v213.3l-128,128H186.7c-14.1,0-25.6-11.5-25.6-25.6V127c0-14.1,11.5-25.6,25.6-25.6h264.5
			C465.4,101.4,476.9,112.9,476.9,127z"/>
		<circle class="st0" cx="331.8" cy="101.4" r="34.1"/>
		<path class="st3" d="M502.5,340.3l-128,128V365.9c0-14.1,11.5-25.6,25.6-25.6H502.5z"/>
	</g>
	<g>
		<path class="st4" d="M477.9,94.9H374.6c-3.8-18.4-19.1-32.1-37.8-33.9c-18.7-1.8-36.3,8.9-43.5,26.2L148.7,37.1
			c-8.6-3-18-2.5-26.1,1.5s-14.4,11-17.4,19.6L1.9,356.1c-3,8.6-2.4,18,1.5,26.2c4,8.2,11.1,14.4,19.7,17.4l130.4,44.8v0.3
			c0,18.9,15.3,34.1,34.1,34.1h187.7c1.1,0,2.2-0.2,3.3-0.7c1-0.4,2-1.1,2.8-1.8l128-128c0.8-0.8,1.4-1.7,1.8-2.8
			c0.4-1,0.7-2.1,0.7-3.3V129C512,110.1,496.7,94.9,477.9,94.9z M332.8,77.8c14.1,0,25.6,11.5,25.6,25.6S346.9,129,332.8,129
			s-25.6-11.5-25.6-25.6S318.7,77.8,332.8,77.8z M28.6,383.5c-4.3-1.5-7.9-4.6-9.9-8.7c-2-4.1-2.3-8.8-0.8-13.1l103.4-298
			c1.5-4.3,4.6-7.8,8.7-9.8s8.8-2.2,13.1-0.7l120.3,41.7h-75.7c-18.9,0-34.1,15.3-34.1,34.1v297.4L28.6,383.5z M170.7,444.7V129
			c0-9.4,7.6-17.1,17.1-17.1H291c4,19.9,21.5,34.2,41.8,34.2s37.8-14.3,41.8-34.2h103.3c9.4,0,17.1,7.6,17.1,17.1v204.8h-93.9
			c-18.9,0-34.1,15.3-34.1,34.1v93.9H187.7C178.3,461.8,170.7,454.2,170.7,444.7z M482.9,350.9L384,449.7v-81.8
			c0-9.4,7.6-17.1,17.1-17.1L482.9,350.9L482.9,350.9z"/>
		<path class="st4" d="M213.3,188.7h59.7c4.7,0,8.5-3.8,8.5-8.5c0-4.7-3.8-8.5-8.5-8.5h-59.7c-4.7,0-8.5,3.8-8.5,8.5
			C204.8,184.9,208.6,188.7,213.3,188.7z"/>
		<path class="st4" d="M213.3,231.4h213.3c4.7,0,8.5-3.8,8.5-8.5s-3.8-8.5-8.5-8.5H213.3c-4.7,0-8.5,3.8-8.5,8.5
			S208.6,231.4,213.3,231.4z"/>
		<path class="st4" d="M213.3,274.1h213.3c4.7,0,8.5-3.8,8.5-8.5c0-4.7-3.8-8.5-8.5-8.5H213.3c-4.7,0-8.5,3.8-8.5,8.5
			C204.8,270.2,208.6,274.1,213.3,274.1z"/>
		<path class="st4" d="M213.3,316.7h213.3c4.7,0,8.5-3.8,8.5-8.5s-3.8-8.5-8.5-8.5H213.3c-4.7,0-8.5,3.8-8.5,8.5
			S208.6,316.7,213.3,316.7z"/>
		<path class="st4" d="M247.5,376.5h-34.1c-4.7,0-8.5,3.8-8.5,8.5c0,4.7,3.8,8.5,8.5,8.5h34.1c4.7,0,8.5-3.8,8.5-8.5
			C256,380.3,252.2,376.5,247.5,376.5z"/>
	</g>
</g>
</svg>
