<?xml version="1.0" encoding="utf-8"?>
<!-- Generator: Adobe Illustrator 21.0.0, SVG Export Plug-In . SVG Version: 6.00 Build 0)  -->
<svg version="1.1" id="Capa_1" xmlns="http://www.w3.org/2000/svg" xmlns:xlink="http://www.w3.org/1999/xlink" x="0px" y="0px"
	 viewBox="0 0 468.3 468.3" style="enable-background:new 0 0 468.3 468.3;" xml:space="preserve">
<style type="text/css">
	.st0{fill:#E1E6E9;}
	.st1{fill:#1E334C;}
	.st2{fill:#EBF0F3;}
	.st3{fill:#46484F;}
	.st4{fill:#FFFFFF;}
	.st5{fill:#B1B1B2;}
</style>
<path class="st0" d="M337.3,0H95.2C84.9,0,76.5,8.4,76.5,18.7v430.8c0,10.3,8.4,18.7,18.7,18.7h306c10.3,0,18.7-8.4,18.7-18.7v-367
	L337.3,0z"/>
<rect x="48.4" y="258.1" class="st1" width="371.5" height="128.3"/>
<g>
	<path class="st2" d="M182.7,293.7c7.6,6.9,11.3,16.4,11.3,28.6c0,12.2-3.7,21.9-11,29c-7.3,7.1-18.6,10.7-33.7,10.7h-26.1v-78.5h27
		C164.3,283.5,175.2,286.9,182.7,293.7z M180.7,322.7c0-18-10.3-27-30.9-27h-13.3v53.8h14.7c9.5,0,16.8-2.3,21.8-6.8
		C178.2,338.2,180.7,331.5,180.7,322.7z"/>
	<path class="st2" d="M276.8,351.1c-7.9,7.8-17.7,11.6-29.4,11.6s-21.5-3.9-29.4-11.6c-7.9-7.7-11.9-17.4-11.9-29
		c0-11.6,4-21.2,11.9-29c7.9-7.8,17.7-11.6,29.4-11.6c11.7,0,21.5,3.9,29.4,11.6c7.9,7.8,11.9,17.4,11.9,29
		C288.7,333.7,284.8,343.4,276.8,351.1z M267.1,302c-5.4-5.5-11.9-8.3-19.7-8.3c-7.8,0-14.4,2.8-19.7,8.3c-5.3,5.5-8,12.3-8,20.2
		s2.7,14.6,8,20.2c5.4,5.5,11.9,8.3,19.7,8.3c7.8,0,14.4-2.8,19.7-8.3c5.3-5.5,8-12.3,8-20.2S272.5,307.5,267.1,302z"/>
	<path class="st2" d="M341.3,350c4.6,0,8.5-0.8,11.8-2.3c3.3-1.5,6.7-4,10.3-7.4l8.5,8.8c-8.3,9.2-18.4,13.8-30.3,13.8
		c-11.9,0-21.7-3.8-29.5-11.5s-11.7-17.3-11.7-29s4-21.4,12-29.2c8-7.8,18-11.7,30.2-11.7s22.3,4.5,30.5,13.5l-8.4,9.2
		c-3.7-3.6-7.3-6.1-10.6-7.5c-3.3-1.4-7.2-2.1-11.7-2.1c-7.9,0-14.6,2.6-20,7.7s-8.1,11.7-8.1,19.7s2.7,14.6,8,20
		C327.6,347.3,334,350,341.3,350z"/>
</g>
<polygon class="st3" points="48.4,386.4 76.5,412.5 76.5,386.4 "/>
<polygon class="st4" points="337.3,82.6 419.9,82.6 337.3,0 "/>
<polygon class="st5" points="353.2,82.6 419.9,121.3 419.9,82.6 "/>
</svg>
