<?xml version="1.0" encoding="utf-8"?>
<!-- Generator: Adobe Illustrator 21.0.0, SVG Export Plug-In . SVG Version: 6.00 Build 0)  -->
<svg version="1.1" id="Capa_1" xmlns="http://www.w3.org/2000/svg" xmlns:xlink="http://www.w3.org/1999/xlink" x="0px" y="0px"
	 viewBox="0 0 512 512" style="enable-background:new 0 0 512 512;" xml:space="preserve">
<style type="text/css">
	.st0{fill:#CFD8DC;}
	.st1{fill:#F4F4F4;}
	.st2{fill:#0377BC;}
	.st3{fill:#73A2E5;}
	.st4{fill:#FFB301;}
	.st5{fill:#FEC108;}
	.st6{fill:#1E2838;}
</style>
<g>
	<g transform="translate(0 1)">
		<path class="st0" d="M503.8,79.5v392.1c0,12.7-7.7,23-17.1,23H25.6c-9.4,0-17.1-10.4-17.1-23V79.5H503.8z"/>
		<path class="st1" d="M478.2,79.5v392.1c0,12.7-7.7,23-17.1,23H25.6c-9.4,0-17.1-10.4-17.1-23V79.5H478.2z"/>
		<path class="st2" d="M503.8,29.5v46.3H0V29.5c0.6-9,8.3-15.9,17.4-15.4h469C495.4,13.6,503.2,20.4,503.8,29.5z"/>
		<path class="st3" d="M477.7,29.5v46.3H0V29.5c0.6-9,8.3-15.9,17.4-15.4h443C469.4,13.6,477.1,20.4,477.7,29.5z"/>
		<g>
			<path class="st4" d="M184.6,138.3v50.3c-0.1,9.2-7.6,16.7-16.8,16.7H83.9v-83.9h83.9C177,121.5,184.5,129,184.6,138.3z"/>
			<path class="st4" d="M92.3,121.5v83.9H67.1c-9.2,0-16.7-7.5-16.8-16.8v-50.3c0-9.3,7.5-16.7,16.8-16.8L92.3,121.5z"/>
			<path class="st4" d="M184.6,264v50.3c0,9.3-7.5,16.8-16.8,16.8H83.9v-83.9h83.9C177,247.3,184.5,254.8,184.6,264z"/>
			<path class="st4" d="M92.3,247.3v83.9H67.1c-9.3,0-16.7-7.5-16.8-16.8v-50.3c0-9.2,7.5-16.7,16.8-16.7H92.3z"/>
			<path class="st4" d="M184.6,389.9v50.3c-0.1,9.2-7.6,16.7-16.8,16.7H83.9v-83.9h83.9C177,373.1,184.5,380.6,184.6,389.9z"/>
		</g>
		<g>
			<path class="st5" d="M159,138.3v50.3c-0.1,9.2-7.6,16.7-16.8,16.7H83.9v-83.9h58.3C151.4,121.5,158.9,129,159,138.3z"/>
			<path class="st5" d="M159,264v50.3c0,9.3-7.5,16.8-16.8,16.8H83.9v-83.9h58.3C151.4,247.3,158.9,254.8,159,264z"/>
			<path class="st5" d="M159,389.9v50.3c-0.1,9.2-7.6,16.7-16.8,16.7H83.9v-83.9h58.3C151.4,373.1,158.9,380.6,159,389.9z"/>
		</g>
		<path class="st4" d="M92.3,373.1V457H67.1c-9.2,0-16.7-7.5-16.8-16.8v-50.3c0-9.3,7.5-16.8,16.8-16.8L92.3,373.1z"/>
	</g>
	<g>
		<path class="st6" d="M486.4,0H25.6C11.5,0,0,11.5,0,25.6v460.8C0,500.5,11.5,512,25.6,512h460.8c14.1,0,25.6-11.5,25.6-25.6V25.6
			C512,11.5,500.5,0,486.4,0z M25.6,17.1h460.8c4.7,0,8.5,3.8,8.5,8.5v42.7H17.1V25.6C17.1,20.9,20.9,17.1,25.6,17.1z M486.4,494.9
			H25.6c-4.7,0-8.5-3.8-8.5-8.5V85.3h477.9v401.1C494.9,491.1,491.1,494.9,486.4,494.9z"/>
		<path class="st6" d="M51.2,51.2h8.5c4.7,0,8.5-3.8,8.5-8.5s-3.8-8.5-8.5-8.5h-8.5c-4.7,0-8.5,3.8-8.5,8.5S46.5,51.2,51.2,51.2z"/>
		<path class="st6" d="M93.9,51.2h8.5c4.7,0,8.5-3.8,8.5-8.5s-3.8-8.5-8.5-8.5h-8.5c-4.7,0-8.5,3.8-8.5,8.5S89.2,51.2,93.9,51.2z"/>
		<path class="st6" d="M136.5,51.2h8.5c4.7,0,8.5-3.8,8.5-8.5s-3.8-8.5-8.5-8.5h-8.5c-4.7,0-8.5,3.8-8.5,8.5S131.8,51.2,136.5,51.2z
			"/>
		<path class="st6" d="M452.3,51.2h8.5c4.7,0,8.5-3.8,8.5-8.5s-3.8-8.5-8.5-8.5h-8.5c-4.7,0-8.5,3.8-8.5,8.5S447.6,51.2,452.3,51.2z
			"/>
		<path class="st6" d="M170.7,110.9H68.3c-14.1,0-25.6,11.5-25.6,25.6v51.2c0,14.1,11.5,25.6,25.6,25.6h102.4
			c14.1,0,25.6-11.5,25.6-25.6v-51.2C196.3,122.4,184.8,110.9,170.7,110.9z M59.7,187.7v-51.2c0-4.7,3.8-8.5,8.5-8.5h17.1v68.3H68.3
			C63.6,196.3,59.7,192.4,59.7,187.7z M179.2,187.7c0,4.7-3.8,8.5-8.5,8.5h-68.3V128h68.3c4.7,0,8.5,3.8,8.5,8.5V187.7z"/>
		<path class="st6" d="M153.6,153.6H128c-4.7,0-8.5,3.8-8.5,8.5c0,4.7,3.8,8.5,8.5,8.5h25.6c4.7,0,8.5-3.8,8.5-8.5
			C162.1,157.4,158.3,153.6,153.6,153.6z"/>
		<path class="st6" d="M170.7,238.9H68.3c-14.1,0-25.6,11.5-25.6,25.6v51.2c0,14.1,11.5,25.6,25.6,25.6h102.4
			c14.1,0,25.6-11.5,25.6-25.6v-51.2C196.3,250.4,184.8,238.9,170.7,238.9z M59.7,315.7v-51.2c0-4.7,3.8-8.5,8.5-8.5h17.1v68.3H68.3
			C63.6,324.3,59.7,320.4,59.7,315.7z M179.2,315.7c0,4.7-3.8,8.5-8.5,8.5h-68.3V256h68.3c4.7,0,8.5,3.8,8.5,8.5V315.7z"/>
		<path class="st6" d="M153.6,281.6H128c-4.7,0-8.5,3.8-8.5,8.5c0,4.7,3.8,8.5,8.5,8.5h25.6c4.7,0,8.5-3.8,8.5-8.5
			C162.1,285.4,158.3,281.6,153.6,281.6z"/>
		<path class="st6" d="M170.7,366.9H68.3c-14.1,0-25.6,11.5-25.6,25.6v51.2c0,14.1,11.5,25.6,25.6,25.6h102.4
			c14.1,0,25.6-11.5,25.6-25.6v-51.2C196.3,378.4,184.8,366.9,170.7,366.9z M59.7,443.7v-51.2c0-4.7,3.8-8.5,8.5-8.5h17.1v68.3H68.3
			C63.6,452.3,59.7,448.4,59.7,443.7z M179.2,443.7c0,4.7-3.8,8.5-8.5,8.5h-68.3V384h68.3c4.7,0,8.5,3.8,8.5,8.5V443.7z"/>
		<path class="st6" d="M153.6,409.6H128c-4.7,0-8.5,3.8-8.5,8.5s3.8,8.5,8.5,8.5h25.6c4.7,0,8.5-3.8,8.5-8.5
			S158.3,409.6,153.6,409.6z"/>
		<path class="st6" d="M341.3,153.6H230.4c-4.7,0-8.5,3.8-8.5,8.5c0,4.7,3.8,8.5,8.5,8.5h110.9c4.7,0,8.5-3.8,8.5-8.5
			C349.9,157.4,346,153.6,341.3,153.6z"/>
		<path class="st6" d="M341.3,281.6H230.4c-4.7,0-8.5,3.8-8.5,8.5c0,4.7,3.8,8.5,8.5,8.5h110.9c4.7,0,8.5-3.8,8.5-8.5
			C349.9,285.4,346,281.6,341.3,281.6z"/>
		<path class="st6" d="M341.3,409.6H230.4c-4.7,0-8.5,3.8-8.5,8.5s3.8,8.5,8.5,8.5h110.9c4.7,0,8.5-3.8,8.5-8.5
			S346,409.6,341.3,409.6z"/>
		<path class="st6" d="M437.7,130.5l-36.6,36.6l-11-11c-3.3-3.2-8.7-3.2-12,0.1c-3.3,3.3-3.3,8.6-0.1,12l17.1,17.1
			c3.3,3.3,8.7,3.3,12.1,0l42.7-42.7c3.2-3.3,3.2-8.7-0.1-12C446.4,127.3,441,127.3,437.7,130.5z"/>
		<path class="st6" d="M437.7,258.5l-36.6,36.6l-11-11c-3.3-3.2-8.7-3.2-12,0.1c-3.3,3.3-3.3,8.6-0.1,12l17.1,17.1
			c3.3,3.3,8.7,3.3,12.1,0l42.7-42.7c3.2-3.3,3.2-8.7-0.1-12C446.4,255.3,441,255.3,437.7,258.5z"/>
		<path class="st6" d="M437.7,386.5l-36.6,36.6l-11-11c-3.3-3.2-8.7-3.2-12,0.1c-3.3,3.3-3.3,8.6-0.1,12l17.1,17.1
			c3.3,3.3,8.7,3.3,12.1,0l42.7-42.7c3.2-3.3,3.2-8.7-0.1-12C446.4,383.3,441,383.3,437.7,386.5z"/>
	</g>
</g>
</svg>
